<?xml version="1.0" standalone="no"?>
<!DOCTYPE svg PUBLIC "-//W3C//DTD SVG 20010904//EN"
 "http://www.w3.org/TR/2001/REC-SVG-20010904/DTD/svg10.dtd">
<svg version="1.0" xmlns="http://www.w3.org/2000/svg"
 width="300.000000pt" height="69.000000pt" viewBox="0 0 300.000000 69.000000"
 preserveAspectRatio="xMidYMid meet">
<metadata>
Created by potrace 1.10, written by Peter Selinger 2001-2011
</metadata>
<g transform="translate(0.000000,69.000000) scale(0.100000,-0.100000)"
fill="#f1c232" stroke="none">
<path d="M155 633 c-23 -2 -54 -14 -70 -28 l-30 -23 -3 -234 -3 -235 30 -31
29 -32 232 0 c252 0 275 5 299 57 7 15 11 105 11 235 0 203 -1 213 -22 244
-13 18 -32 36 -43 39 -22 7 -367 13 -430 8z m432 -56 c16 -16 18 -40 18 -237
0 -197 -2 -221 -18 -237 -16 -16 -42 -18 -214 -21 -224 -4 -258 0 -275 31 -17
29 -23 371 -8 427 7 26 19 44 33 50 12 5 117 8 234 7 189 -2 214 -4 230 -20z"/>
<path d="M224 439 c-10 -12 -38 -35 -61 -51 -24 -16 -43 -37 -43 -46 0 -10 25
-35 55 -57 30 -22 55 -43 55 -47 0 -5 5 -8 10 -8 6 0 10 8 10 18 0 11 -20 33
-50 53 -27 19 -50 37 -50 40 0 4 18 18 39 33 55 38 77 64 65 76 -7 7 -17 3
-30 -11z"/>
<path d="M353 387 c-22 -39 -53 -93 -67 -119 l-27 -48 25 0 c14 0 26 7 30 18
3 9 19 42 37 72 17 30 40 72 51 93 23 42 38 56 38 33 0 -8 25 -33 56 -55 l55
-40 -55 -41 c-36 -26 -56 -48 -56 -61 0 -16 11 -11 65 33 43 34 65 59 65 72
-1 25 -122 116 -154 116 -16 0 -32 -19 -63 -73z"/>
<path d="M1990 583 c0 -5 13 -15 29 -24 23 -14 28 -22 24 -44 -5 -22 -9 -25
-27 -20 -51 17 -103 6 -132 -29 -45 -53 -67 -106 -61 -149 9 -64 84 -127 151
-127 21 0 27 -7 37 -42 10 -41 23 -58 43 -58 5 0 5 15 1 33 -11 50 -11 61 0
63 61 6 117 58 135 124 15 55 28 50 23 -7 -9 -92 34 -141 96 -110 17 9 31 12
31 7 0 -16 52 -70 62 -64 5 4 1 15 -10 28 -27 29 -30 54 -9 98 27 57 33 123
13 153 -38 58 -66 16 -66 -100 0 -63 -3 -76 -19 -85 -53 -28 -79 6 -56 72 18
53 18 53 -1 72 -20 21 -32 20 -36 -1 -3 -12 -12 -1 -26 32 -27 58 -39 73 -115
136 -53 45 -87 61 -87 42z m166 -170 c31 -72 3 -132 -77 -174 l-39 -19 0 81
c0 72 2 81 20 86 24 6 26 35 5 67 -11 16 -14 33 -9 52 l7 28 40 -44 c22 -25
46 -59 53 -77z m-141 51 c12 -13 15 -26 9 -58 -14 -82 -21 -161 -16 -175 4
-10 -2 -12 -29 -6 -58 12 -97 32 -114 58 -32 49 12 143 85 182 34 18 46 18 65
-1z m360 -154 l-15 -45 5 48 c5 52 17 83 22 57 2 -8 -3 -35 -12 -60z m-330
-110 c-3 -5 -10 -10 -16 -10 -5 0 -9 5 -9 10 0 6 7 10 16 10 8 0 12 -4 9 -10z"/>
<path d="M2821 483 c2 -60 0 -68 -17 -71 -45 -7 -46 -11 -16 -50 24 -30 32
-54 41 -123 7 -47 16 -91 21 -98 13 -22 20 4 10 40 -13 44 -13 145 0 169 6 11
26 22 48 26 20 4 41 9 46 12 14 8 -18 22 -53 22 l-34 0 7 50 c6 42 3 53 -14
70 -34 34 -42 25 -39 -47z m26 -101 c-9 -10 -17 -24 -17 -31 0 -7 -4 -9 -10
-6 -5 3 -9 14 -7 24 4 25 30 51 41 40 6 -5 3 -16 -7 -27z"/>
<path d="M2830 390 c-9 -6 -10 -10 -3 -10 6 0 15 5 18 10 8 12 4 12 -15 0z"/>
<path d="M910 491 c0 -6 -29 -7 -70 -4 -75 6 -85 -1 -49 -33 12 -10 39 -45 60
-77 l39 -59 -40 -36 -41 -37 19 -35 c17 -31 24 -35 61 -36 24 0 49 -8 60 -18
22 -20 40 -4 21 19 -10 12 -9 16 1 18 8 2 37 11 65 20 29 10 63 17 77 17 14 0
29 5 32 10 3 6 15 10 26 10 11 0 33 7 49 15 28 14 29 14 35 -14 12 -57 81 -95
143 -79 43 11 41 28 -3 21 -40 -6 -95 13 -95 33 0 12 4 12 20 2 16 -10 23 -9
45 12 32 30 54 73 62 122 6 43 -13 67 -55 68 -46 0 -81 -29 -109 -90 l-15 -34
-14 26 c-13 26 -146 98 -179 98 -8 0 -15 4 -15 9 0 5 -10 13 -22 17 -13 3 -35
15 -50 25 -28 20 -58 25 -58 10z m40 -31 c0 -5 -5 -10 -11 -10 -5 0 -7 5 -4
10 3 6 8 10 11 10 2 0 4 -4 4 -10z m-40 -39 c0 -16 3 -43 6 -60 8 -40 -17 -43
-33 -3 -6 15 -21 42 -33 60 l-22 32 41 0 c38 0 41 -2 41 -29z m199 -39 c97
-48 117 -67 84 -79 -10 -3 -26 -13 -35 -21 -10 -8 -18 -12 -18 -8 0 4 -13 -2
-30 -14 -16 -12 -30 -19 -30 -17 0 5 -64 -7 -101 -19 -13 -3 -16 5 -18 43 -1
39 3 52 26 76 16 16 39 34 53 40 l25 11 -28 4 c-16 2 -39 -4 -52 -12 -33 -22
-35 -21 -35 20 0 35 1 35 33 29 17 -3 74 -27 126 -53z m291 9 c0 -38 -70 -141
-96 -141 -34 0 18 133 56 144 27 7 40 6 40 -3z m-464 -106 c-1 -39 -3 -43 -13
-28 -12 15 -13 15 -13 -5 0 -15 6 -22 20 -22 11 0 20 -6 20 -14 0 -10 -13 -13
-47 -12 -48 1 -61 13 -48 44 7 16 8 16 14 0 5 -15 8 -14 18 7 6 14 7 23 2 19
-5 -3 -9 0 -9 6 0 7 8 9 21 5 15 -5 19 -4 14 4 -5 9 10 41 20 41 1 0 1 -20 1
-45z"/>
<path d="M1679 451 c-18 -14 -23 -29 -23 -64 0 -37 7 -54 42 -99 49 -64 53
-90 15 -107 -27 -12 -27 -13 -8 -27 27 -20 51 -17 68 7 20 28 9 63 -42 140
-46 68 -50 88 -23 112 25 22 37 21 54 -5 8 -12 19 -18 26 -14 23 14 12 34 -31
55 -52 25 -49 25 -78 2z"/>
<path d="M2640 448 c-33 -36 -27 -96 15 -151 44 -58 57 -91 42 -106 -6 -6 -17
-11 -24 -11 -24 0 -13 -30 14 -36 20 -6 31 -2 45 16 23 28 19 44 -34 132 -42
71 -47 112 -15 132 15 9 21 7 36 -13 18 -23 41 -22 41 2 -1 16 -38 42 -72 50
-21 6 -32 2 -48 -15z"/>
<path d="M1435 433 c15 -35 35 -119 42 -171 4 -40 12 -58 31 -72 31 -25 42
-25 42 -2 0 9 16 48 35 86 19 39 35 75 35 82 0 7 5 14 12 16 7 3 9 14 4 31 -8
32 -26 36 -26 7 0 -44 -88 -167 -103 -143 -2 4 -5 34 -5 67 0 50 -4 62 -28 87
-31 32 -50 38 -39 12z m98 -210 c-5 -12 -7 -12 -14 -1 -13 20 -11 28 5 22 8
-3 12 -12 9 -21z"/>
<path d="M2494 419 c-11 -6 -33 -29 -48 -52 -67 -103 9 -224 122 -195 56 14
54 29 -3 21 -46 -6 -95 14 -95 38 0 8 5 7 15 -1 21 -17 40 -7 74 40 39 54 51
125 25 145 -22 17 -60 18 -90 4z m76 -38 c0 -22 -58 -109 -82 -125 -25 -15
-30 -4 -19 45 15 66 101 134 101 80z"/>
</g>
</svg>
