<?xml version="1.0" standalone="no"?>
<!DOCTYPE svg PUBLIC "-//W3C//DTD SVG 20010904//EN"
 "http://www.w3.org/TR/2001/REC-SVG-20010904/DTD/svg10.dtd">
<svg version="1.0" xmlns="http://www.w3.org/2000/svg"
 width="672.000000pt" height="708.000000pt" viewBox="0 0 672.000000 708.000000"
 preserveAspectRatio="xMidYMid meet">
<metadata>
Created by potrace 1.10, written by Peter Selinger 2001-2011
</metadata>
<g transform="translate(0.000000,708.000000) scale(0.100000,-0.100000)"
fill="#ffff00" stroke="none">
<path d="M3380 6695 c-7 -8 -21 -15 -31 -15 -11 0 -36 -10 -57 -23 -20 -12
-48 -28 -62 -35 -14 -7 -38 -21 -55 -32 -16 -11 -37 -23 -45 -27 -8 -3 -28
-16 -45 -28 -16 -12 -50 -32 -75 -44 -25 -13 -53 -30 -62 -39 -19 -16 -24 -38
-9 -44 5 -1 53 -68 106 -148 54 -80 110 -161 126 -181 16 -20 29 -42 29 -48 0
-6 3 -11 8 -11 4 0 18 -20 32 -45 13 -24 30 -47 37 -49 7 -3 13 -13 13 -23 -1
-24 -39 -69 -49 -57 -19 22 -131 196 -131 205 0 5 -4 9 -9 9 -5 0 -12 8 -15
18 -4 9 -20 32 -36 51 -17 18 -30 38 -30 43 0 5 -27 45 -60 89 -33 44 -60 83
-60 88 0 4 -9 16 -20 26 -23 21 -60 15 -99 -17 -14 -11 -39 -26 -56 -34 -16
-7 -37 -18 -45 -24 -22 -15 -206 -122 -275 -160 -33 -18 -62 -36 -65 -40 -3
-3 -24 -16 -47 -27 -63 -33 -125 -69 -208 -120 -19 -12 -41 -25 -166 -96 -31
-18 -88 -51 -128 -74 -127 -76 -209 -123 -216 -123 -3 0 -21 -11 -39 -25 -18
-14 -37 -25 -43 -25 -5 0 -20 -9 -33 -20 -13 -11 -29 -20 -37 -20 -7 0 -13 -4
-13 -9 0 -5 -12 -14 -27 -20 -16 -6 -41 -20 -58 -31 -16 -11 -39 -24 -50 -30
-11 -5 -27 -14 -35 -20 -38 -25 -155 -93 -174 -101 -12 -5 -34 -18 -51 -29
-16 -11 -37 -23 -45 -26 -8 -4 -28 -17 -45 -29 -16 -12 -43 -28 -60 -37 -188
-96 -169 -68 -166 -244 3 -171 -4 -152 115 -295 45 -53 106 -127 136 -164 30
-37 60 -73 65 -79 41 -47 116 -139 145 -176 18 -25 38 -49 44 -55 9 -8 140
-170 181 -223 6 -7 24 -28 40 -47 17 -18 44 -50 60 -71 17 -20 35 -42 40 -48
15 -16 106 -128 135 -166 14 -18 43 -54 65 -80 50 -59 70 -83 119 -145 22 -28
44 -54 50 -60 6 -5 27 -30 46 -55 19 -25 47 -58 62 -75 33 -35 33 -37 13 -75
-19 -36 -28 -37 -48 -6 -9 13 -33 43 -54 68 -21 24 -56 67 -78 94 -22 26 -54
64 -70 84 -17 19 -59 71 -95 115 -36 44 -69 85 -75 91 -5 6 -23 28 -40 49 -16
20 -46 56 -65 79 -19 23 -46 57 -60 75 -14 19 -41 52 -60 75 -19 22 -38 45
-43 51 -4 5 -16 20 -26 33 -11 13 -43 52 -73 89 -96 118 -169 208 -186 228 -9
11 -35 43 -57 70 -22 28 -45 55 -51 60 -6 6 -32 37 -57 70 -25 33 -62 77 -81
98 -20 21 -43 51 -51 66 -8 16 -22 31 -32 33 -17 5 -18 -53 -15 -1361 l2
-1366 23 -17 c12 -10 26 -18 31 -18 4 0 28 -13 53 -30 24 -16 48 -30 52 -30 4
0 27 -14 49 -30 23 -17 46 -30 50 -30 5 0 27 -12 48 -28 21 -15 59 -37 84 -50
25 -13 59 -31 75 -42 65 -40 127 -70 136 -65 5 3 16 23 25 43 77 172 92 204
103 222 5 8 20 40 33 70 14 30 46 99 72 152 25 53 46 99 46 101 0 3 25 58 56
123 30 66 71 153 90 194 20 41 49 102 65 135 16 33 29 68 29 77 0 9 4 19 9 22
5 4 19 27 31 54 11 26 28 61 36 77 9 17 22 41 28 55 7 14 26 51 42 82 30 60
52 73 61 38 6 -24 12 -25 39 -5 32 22 39 74 14 97 -30 28 -25 66 24 164 24 49
65 134 91 189 61 131 95 203 139 297 20 42 36 82 36 88 0 6 11 28 25 50 14 22
25 44 25 50 0 5 13 36 29 67 16 32 49 101 74 153 24 52 65 139 91 193 25 53
46 100 46 102 0 5 35 81 110 240 70 147 134 286 195 420 30 66 61 132 74 155
10 17 64 132 111 235 107 234 108 235 130 196 22 -42 12 -96 -31 -171 -5 -8
-12 -22 -15 -30 -4 -8 -33 -69 -64 -135 -32 -66 -68 -142 -80 -170 -12 -27
-46 -100 -76 -162 -30 -62 -54 -115 -54 -118 0 -3 -34 -76 -75 -163 -194 -407
-225 -473 -225 -482 0 -5 -13 -32 -30 -60 -16 -28 -30 -53 -30 -56 0 -8 -63
-145 -155 -339 -42 -89 -141 -298 -165 -350 -10 -22 -28 -60 -39 -85 -11 -25
-29 -61 -39 -80 -41 -73 -92 -197 -92 -221 0 -23 25 -66 60 -101 8 -8 33 -39
55 -67 22 -29 63 -79 90 -110 28 -32 60 -71 73 -87 52 -67 121 -152 177 -218
33 -39 76 -91 94 -116 19 -25 39 -49 46 -55 6 -5 32 -37 58 -70 25 -33 60 -76
76 -95 31 -35 36 -55 25 -84 -11 -28 -40 -17 -73 28 -17 25 -45 58 -61 74 -16
16 -41 47 -55 68 -15 21 -43 57 -63 78 -20 22 -55 63 -77 92 -54 69 -206 253
-326 393 -16 19 -29 38 -29 42 0 4 -3 9 -8 11 -4 2 -25 26 -47 53 -21 28 -42
54 -47 59 -11 14 -35 -11 -58 -62 -56 -123 -111 -240 -129 -272 -5 -8 -22 -44
-38 -80 -17 -36 -46 -99 -66 -141 -21 -42 -37 -81 -37 -87 0 -7 -4 -12 -10
-12 -5 0 -10 -7 -10 -16 0 -9 -7 -28 -15 -42 -8 -15 -37 -76 -65 -137 -28 -60
-55 -118 -60 -127 -6 -10 -10 -24 -10 -32 0 -7 -7 -19 -15 -26 -8 -7 -15 -21
-15 -31 0 -9 -7 -24 -15 -33 -8 -8 -15 -19 -15 -25 0 -6 -13 -37 -30 -68 -16
-31 -30 -64 -30 -74 0 -10 -4 -20 -9 -23 -10 -7 -81 -148 -81 -162 0 -12 42
-44 90 -67 19 -10 49 -26 65 -37 17 -10 54 -31 83 -46 28 -15 52 -31 52 -36 0
-4 5 -8 11 -8 11 0 144 -76 169 -96 21 -17 118 -72 153 -85 15 -6 27 -15 27
-20 0 -5 6 -9 14 -9 7 0 19 -7 26 -15 7 -8 20 -15 29 -15 10 0 35 -13 57 -30
21 -16 44 -30 50 -30 6 0 23 -9 38 -21 29 -22 66 -18 66 8 0 8 27 60 60 115
33 54 60 105 60 113 0 8 4 17 10 20 5 3 21 29 36 58 39 76 82 156 108 202 82
146 142 257 207 383 50 97 66 114 83 90 21 -28 49 -26 64 5 l14 28 39 -43 c21
-24 39 -47 39 -51 0 -5 18 -27 39 -50 39 -42 92 -107 165 -201 22 -28 45 -55
51 -61 6 -5 27 -30 45 -54 18 -23 48 -59 66 -80 32 -36 88 -106 205 -254 33
-43 67 -81 75 -84 8 -3 14 -11 14 -18 0 -7 4 -15 8 -17 5 -1 27 -28 51 -58 24
-30 62 -77 86 -105 48 -55 146 -174 185 -223 14 -18 29 -32 34 -32 19 0 112
49 130 69 11 12 25 21 32 21 8 0 36 14 62 30 27 17 54 30 60 30 6 0 12 4 14 8
4 11 174 112 188 112 5 0 10 4 10 9 0 5 12 14 28 20 15 6 50 25 77 42 28 16
64 37 80 45 32 15 33 16 137 82 37 23 71 42 76 42 13 0 57 51 74 85 8 17 46
86 83 155 37 69 81 150 97 180 15 30 33 59 38 64 6 6 10 18 10 27 0 10 6 24
13 31 14 14 56 86 114 198 19 36 50 92 69 125 18 33 46 83 60 110 14 28 39 75
55 105 16 30 29 61 29 68 0 10 -52 92 -82 127 -23 27 -99 142 -104 158 -4 9
-10 17 -15 17 -5 0 -9 6 -9 13 0 8 -9 22 -20 32 -11 10 -20 22 -20 26 0 7 -81
123 -128 184 -16 21 -248 367 -258 386 -6 11 -20 30 -30 42 -11 12 -30 40 -44
62 -13 22 -28 45 -32 50 -39 51 -78 106 -78 111 0 3 -13 23 -30 44 -16 21 -30
41 -30 45 0 3 -19 32 -42 63 -24 32 -47 65 -53 74 -8 13 -92 139 -125 188 -23
33 -110 156 -125 175 -8 10 -15 23 -15 28 0 5 -12 24 -27 42 -56 67 -93 122
-93 139 0 49 43 75 55 34 4 -13 17 -34 29 -48 12 -14 40 -52 62 -85 21 -33 41
-62 44 -65 6 -5 37 -53 55 -82 21 -36 89 -132 104 -148 9 -10 27 -37 41 -60
14 -24 30 -48 35 -54 14 -15 126 -180 148 -219 11 -18 27 -41 36 -52 10 -11
40 -54 67 -95 27 -41 54 -79 61 -83 7 -4 13 -14 13 -20 0 -7 13 -28 30 -47 16
-19 29 -40 30 -46 0 -6 7 -18 16 -25 15 -12 41 -49 79 -111 38 -61 147 -217
160 -228 8 -7 15 -16 15 -21 0 -4 24 -43 54 -86 30 -43 85 -123 123 -178 37
-55 71 -102 74 -105 4 -3 18 -26 32 -52 22 -41 24 -53 15 -84 -13 -48 -2 -101
23 -114 25 -14 35 -7 43 30 5 27 8 29 25 21 10 -6 23 -23 29 -38 5 -16 21 -40
35 -53 15 -14 27 -30 27 -35 0 -6 13 -26 30 -45 16 -19 29 -40 30 -45 0 -6 13
-26 30 -45 16 -19 29 -38 30 -42 0 -12 97 -153 114 -167 18 -15 52 -9 83 16
l22 18 3 626 3 627 -20 -22 c-11 -11 -31 -41 -43 -66 -13 -25 -39 -72 -57
-105 -19 -33 -39 -72 -46 -87 -6 -16 -15 -28 -20 -28 -5 0 -9 -8 -9 -18 0 -10
-4 -22 -9 -27 -11 -11 -47 -77 -94 -170 -17 -33 -34 -61 -39 -63 -4 -2 -8 -11
-8 -21 0 -9 -5 -22 -11 -28 -12 -12 -24 -33 -59 -100 -12 -24 -26 -43 -30 -43
-5 0 -16 15 -25 33 -15 32 -15 35 31 127 26 52 53 102 60 110 7 8 30 49 52 90
60 115 113 211 137 250 12 19 38 69 59 110 20 41 41 82 46 90 5 8 24 40 42 70
l33 55 0 884 0 883 -50 27 c-111 60 -171 95 -194 112 -13 11 -28 19 -34 19 -6
0 -25 11 -43 25 -18 14 -37 25 -43 25 -5 0 -29 13 -53 29 -53 35 -120 74 -175
102 -23 11 -47 27 -54 35 -6 8 -16 14 -21 14 -6 0 -54 27 -108 59 -53 32 -107
62 -119 66 -11 3 -21 10 -21 14 0 4 -21 18 -47 31 -27 13 -61 32 -77 44 -43
29 -98 56 -116 56 -9 0 -25 -23 -39 -55 -14 -30 -28 -55 -33 -55 -4 0 -8 -9
-8 -19 0 -11 -5 -23 -11 -26 -5 -4 -15 -17 -20 -28 -5 -12 -20 -40 -33 -62
-14 -22 -48 -86 -76 -142 -28 -57 -56 -103 -61 -103 -5 0 -9 -9 -9 -19 0 -11
-5 -23 -10 -26 -6 -4 -17 -21 -25 -38 -20 -45 -62 -118 -75 -131 -5 -5 -10
-18 -10 -27 0 -10 -6 -24 -12 -31 -7 -7 -24 -35 -37 -63 -14 -27 -27 -52 -30
-55 -3 -3 -24 -41 -46 -85 -22 -44 -42 -82 -45 -85 -3 -3 -16 -27 -29 -55 -13
-27 -34 -64 -47 -82 -13 -17 -24 -38 -24 -47 0 -8 -7 -22 -16 -31 -23 -22 -44
-2 -44 41 0 32 32 108 51 120 5 3 9 14 9 24 0 10 6 25 14 33 8 8 38 58 66 111
27 53 61 114 73 134 13 20 34 61 47 90 14 28 28 52 31 52 4 0 9 8 13 18 3 9
10 25 16 35 16 26 27 48 55 102 24 48 33 64 55 103 6 9 22 40 36 67 36 72 50
95 63 108 6 6 11 18 11 27 0 10 14 36 30 58 17 23 30 49 30 57 0 9 6 18 14 21
8 3 18 19 21 35 4 16 10 29 15 29 4 0 10 10 14 23 4 16 -1 28 -22 44 -15 13
-32 23 -38 23 -6 0 -29 12 -50 28 -21 15 -50 33 -64 40 -24 12 -81 44 -145 84
-16 10 -40 22 -53 28 -13 5 -38 21 -56 35 -18 14 -37 25 -43 25 -5 0 -29 14
-51 30 -23 17 -47 30 -54 30 -6 0 -19 6 -27 13 -24 20 -170 107 -181 107 -5 0
-15 6 -22 13 -18 16 -48 35 -73 46 -12 5 -63 34 -113 65 -51 31 -96 56 -101
56 -5 0 -19 8 -32 18 -36 28 -69 34 -76 14 -3 -9 -25 -60 -50 -112 -70 -150
-71 -154 -78 -177 -3 -13 -11 -23 -16 -23 -5 0 -9 -5 -9 -12 0 -10 -29 -74
-120 -263 -16 -33 -31 -70 -35 -82 -14 -50 -55 -13 -55 49 0 31 5 44 43 115
35 63 77 161 77 176 0 9 4 18 9 21 5 4 19 27 31 54 12 26 26 54 31 62 5 8 12
22 15 30 3 8 26 56 50 107 24 50 44 101 44 111 0 13 -14 27 -37 40 -21 10 -64
33 -96 51 -65 35 -89 38 -107 16z m15 -942 c17 -21 66 -92 111 -158 44 -66
128 -191 187 -278 59 -87 107 -161 107 -164 0 -3 15 -22 33 -43 17 -20 41 -52
52 -70 11 -19 27 -44 35 -56 8 -12 41 -59 73 -105 32 -46 85 -126 119 -176 33
-51 65 -93 69 -93 17 0 8 -35 -15 -63 l-23 -28 -38 63 c-21 35 -51 79 -67 99
-15 20 -28 41 -28 46 0 4 -13 24 -28 43 -16 19 -32 42 -35 50 -4 8 -41 62 -82
120 -78 111 -223 320 -240 348 -5 9 -35 50 -65 91 -30 42 -63 92 -74 111 -10
19 -25 39 -32 43 -8 4 -14 12 -14 18 0 15 -80 132 -106 154 l-24 20 20 33 c11
17 23 32 27 32 5 0 22 -17 38 -37z m785 -1306 c13 -23 12 -30 -10 -74 -13 -26
-26 -50 -29 -53 -3 -3 -23 -39 -44 -80 -21 -41 -50 -95 -63 -120 -14 -25 -41
-74 -60 -110 -19 -36 -39 -72 -44 -80 -5 -8 -11 -22 -14 -30 -4 -8 -15 -28
-26 -45 -11 -16 -26 -43 -34 -60 -8 -16 -29 -55 -47 -85 -17 -30 -55 -100 -84
-155 -29 -55 -67 -127 -85 -160 -18 -33 -52 -96 -75 -140 -57 -109 -95 -177
-109 -195 -7 -8 -30 -51 -51 -95 -22 -44 -42 -82 -45 -85 -9 -9 -28 -43 -56
-100 -15 -30 -30 -57 -33 -60 -4 -3 -18 -29 -31 -57 -14 -29 -28 -53 -32 -53
-3 0 -9 -13 -13 -30 -4 -17 -10 -30 -14 -30 -4 0 -15 -19 -25 -42 -11 -24 -40
-79 -67 -124 -60 -100 -129 -234 -129 -251 0 -24 -20 -24 -29 0 -6 14 -15 28
-20 32 -15 9 -14 42 2 52 6 4 27 37 45 73 67 130 134 256 153 285 10 17 23 40
28 52 6 12 22 40 36 62 14 22 25 47 25 55 0 8 6 21 13 28 12 14 26 37 81 143
18 33 39 71 48 85 8 14 36 63 60 110 25 47 55 101 66 120 12 19 24 42 28 50 7
18 22 48 61 120 17 30 47 87 68 125 37 68 46 85 112 205 16 30 46 84 65 120
19 36 45 81 56 100 11 19 39 71 63 115 23 44 53 97 66 117 12 21 23 44 23 51
0 7 5 18 11 24 13 13 18 22 78 138 24 47 49 84 55 82 6 -2 18 -15 26 -30z"/>
<path d="M5619 2327 c-9 -7 -20 -23 -24 -36 -4 -14 -24 -52 -44 -85 -20 -34
-47 -81 -59 -106 -13 -25 -41 -76 -62 -115 -21 -38 -50 -92 -64 -120 -14 -27
-41 -77 -59 -110 -33 -60 -77 -139 -136 -249 -18 -32 -39 -65 -47 -74 -11 -11
-12 -18 -4 -26 8 -8 19 -6 40 7 17 9 45 25 62 35 18 9 35 20 38 24 3 4 17 12
30 17 14 6 32 15 40 21 47 30 169 100 175 100 5 0 22 10 39 23 17 12 42 28 56
35 14 7 48 26 75 42 28 17 64 37 80 44 17 8 45 26 64 40 19 14 39 26 43 26 5
0 14 4 21 10 7 5 25 20 42 34 l29 24 -29 45 c-74 112 -167 248 -178 259 -7 7
-32 43 -57 81 -24 37 -46 67 -49 67 -3 0 -13 -6 -22 -13z"/>
<path d="M2882 2000 c-17 -16 -36 -46 -42 -65 -6 -19 -16 -35 -21 -35 -5 0 -9
-5 -9 -11 0 -14 -30 -80 -45 -99 -7 -8 -30 -46 -50 -85 -21 -38 -53 -97 -71
-130 -18 -33 -45 -85 -60 -115 -15 -30 -38 -73 -52 -95 -14 -22 -52 -91 -84
-154 -32 -63 -65 -122 -72 -130 -23 -25 -29 -66 -13 -79 8 -7 36 -24 63 -39
75 -40 96 -52 129 -74 17 -10 42 -24 58 -30 15 -6 27 -14 27 -18 0 -4 21 -18
48 -31 26 -13 60 -32 75 -43 16 -10 49 -31 75 -45 70 -37 83 -45 127 -73 22
-14 50 -29 63 -33 12 -4 22 -11 22 -16 0 -5 10 -12 22 -16 17 -5 163 -88 218
-124 8 -6 26 -15 40 -20 14 -6 33 -15 42 -20 29 -16 62 -12 109 15 24 14 51
28 59 32 8 4 47 26 86 50 39 24 75 43 79 43 4 0 27 14 52 30 24 17 46 30 49
30 2 0 23 12 47 27 23 15 58 36 77 46 52 28 52 29 10 77 -22 25 -40 48 -40 52
0 4 -14 22 -31 40 -17 18 -47 53 -67 78 -21 25 -43 51 -49 58 -7 7 -13 16 -13
20 0 4 -20 28 -43 53 -23 26 -51 59 -62 75 -26 36 -116 138 -127 142 -4 2 -8
8 -8 14 0 11 -51 78 -92 121 -16 15 -28 31 -28 35 0 4 -15 23 -33 43 -66 73
-112 127 -127 150 -13 20 -55 70 -100 120 -8 9 -26 31 -40 49 -14 18 -34 43
-45 55 -11 13 -35 40 -53 61 -18 20 -40 50 -48 66 -8 15 -16 28 -18 28 -3 0
-18 -13 -34 -30z"/>
</g>
</svg>
